/* XPM */
static char * reboot_in_xpm[] = {
"64 64 17 1",
" 	c None",
".	c #000100",
"+	c #100000",
"@	c #1A0000",
"#	c #280000",
"$	c #330000",
"%	c #400000",
"&	c #4D0000",
"*	c #5C0000",
"=	c #6E0000",
"-	c #820100",
";	c #950000",
">	c #AA0000",
",	c #BD0000",
"'	c #DD0000",
")	c #F50000",
"!	c #FF0000",
"............................+@$&&$@+............................",
".......................+*>,'!!!!!!!!',>*+.......................",
"....................@=,)!!!!!!!!!!!!!!!!),=@....................",
"..................$,!!!!!!',>;-**-;>,'!!!!!!,$..................",
"................@>!!!!!,=#............#=,!!!!!>@................",
"..............+;)!!!,*+..................+*,!!!);+..............",
".............$'!!!'&.........+#%%#+.........&'!!!'$.............",
"............*)!!'=+.....+*>')!!!!!!)'>*+.....+='!!)*............",
"..........+;!!!;+....+=,!!!!!!!!!!!!!!!!,=+....+;!!!;+..........",
".........+,!!!=....+=)!!!!!!!!!!!!!!!!!!!!)=+....=!!!,+.........",
"........+,!!)%...+*'!!!!!!'$#@$%&*;,)!!!!!!!'*+...%)!!,+........",
"........;!!'#...+,!!!!!!!!,.........+%;)!!!!!!,+...#'!!;........",
".......*!!)#...#'!!!!!!!!!,............+*,!!!!!'#...#)!!*.......",
"......%)!!%...%)!!!!!!!!!!,...............*'!!!!)%...%!!)%......",
".....+'!!=...%!!!!!!!!!!!!,................+-!!!!!%...=!!'+.....",
".....;!!>...#)!!!!!!!!!!!!'>,',;=&#+.........*)!!!)#...>!!;.....",
"....@)!'+..+'!!!!!!!!!!!!!!!!!!!!!!!,&+.......$'!!!'+..+'!)@....",
"....>!!*..+,!!!!!!!!!!!!!!!!!!!!!!!!!!'=+......%)!!!,+..*!!>....",
"...$!!'+..*!!!!!!!!!!!!!!!!!!!!!!!!!!!!!)=......=!!!!*..+'!!$...",
"...,!!&..+'!!!!!!!!!!!!!!!!!!!!!!!!!!!!!!!-......,!!!'+..&!!,...",
"..@!!,...=!!!!!!!!!!!!!!!!!!!!!!!!!!!!!!!!!-.....%!!!!=...,!!@..",
"..=!!*..+)!!!!!!!!!!!!!!!!'&=)!!!!!!!!!!!!!!;.....'!!!)+..*!!=..",
"..,!!+..=!!!!!!!!!!!!!!!!'@..;!!!!!!!!!!!!!!!$....=!!!!=..+!!,..",
".+)!,...,!!!!!!!!!!!!!!!)#...=!!!!!!!!!!!!!!!>....&!!!!,...,!)+.",
".*!!=..@!!!!!!!!!!!!!!!)$....=!!!!!!!!!!!!!!!'....#!!!!!@..=!!*.",
".>!!#..*!!!!!!!!!!!!!!!&.....=!!!!!!!!!!!!!!!)....+!!!!!*..#!!>.",
".,!'...>!!!!!!!!!!!!!!*......=!!!!!!!!!!!!!!!'....#!!!!!>...'!,.",
".'!,...'!!!!!!!!!!!!!=.......=!!!!!!!!!!!!!!!;....&!!!!!'...,!'.",
"+!!>...)!!!!!!!!!!!!;........=!!!!!!!!!!!!!!!#....-!!!!!)...>!!+",
"@!!;..+!!!!!!!!!!!!>+........=!!!!!!!!!!!!!!-....+'!!!!!!+..;!!@",
"$!!-..#!!!!!!!!!!!,+.........=!!!!!!!!!!!!!-.....&!!!!!!!#..-!!$",
"&!!*..%!!!!!!!!!!,+..........=!!!!!!!!!!!!=......,!!!!!!!%..*!!&",
"&!!*..%!!!!!!!!!'@...........=!!!!!!!!!!'*......=!!!!!!!!%..*!!&",
"$!!-..#!!!!!!!!'#............=!!!!!!!!,*+......%!!!!!!!!!#..-!!$",
"@!!;..+!!!!!!!)$.............=!!!!!)>%........$)!!!!!!!!!+..;!!@",
"+!!>...)!!!!!)%..............&>-*%@..........*)!!!!!!!!!)...>!!+",
".'!,...'!!!!!=.............................+;!!!!!!!!!!!'...,!'.",
".,!'...>!!!!!@...........................+*'!!!!!!!!!!!!>...'!,.",
".>!!#..*!!!!!*.........................+*'!!!!!!!!!!!!!!*..#!!>.",
".*!!=..+!!!!!)$.....................@&>)!!!!!!!!!!!!!!!!+..=!!*.",
".+)!,...,!!!!!)#.............@%*=->'!!!!!!!!!!!!!!!!!!!,...,!)+.",
"..,!!@..=!!!!!!'@............=!!!!!!!!!!!!!!!!!!!!!!!!!=..@!!,..",
"..=!!*..+'!!!!!!'+...........=!!!!!!!!!!!!!!!!!!!!!!!!'+..*!!=..",
"..@!!,...=!!!!!!!,+..........=!!!!!!!!!!!!!!!!!!!!!!!!=...,!!@..",
"...,!!&..+'!!!!!!!>+.........=!!!!!!!!!!!!!!!!!!!!!!!'+..&!!,...",
"...$!!'+..*!!!!!!!!;.........=!!!!!!!!!!!!!!!!!!!!!!!*..+'!!$...",
"....>!!=...,!!!!!!!!-........=!!!!!!!!!!!!!!!!!!!!!!,...=!!>....",
"....@)!'+..+'!!!!!!!!=.......=!!!!!!!!!!!!!!!!!!!!!'+..+'!)@....",
".....;!!>...#)!!!!!!!!&......=!!!!!!!!!!!!!!!!!!!!)#...>!!;.....",
".....+'!!=...%)!!!!!!!)%.....=!!!!!!!!!!!!!!!!!!!)%...=!!'+.....",
"......$)!!&...%)!!!!!!!)$....=!!!!!!!!!!!!!!!!!!)%...&!!)$......",
".......*!!)#...#'!!!!!!!'@...=!!!!!!!!!!!!!!!!!'#...#)!!*.......",
"........;!!'#...+,!!!!!!!'+..-!!!!!!!!!!!!!!!!,+...#'!!;........",
"........+,!!)%...+*'!!!!!!'&*'!!!!!!!!!!!!!!'*+...%)!!,+........",
".........+>!!!=....+=)!!!!!!!!!!!!!!!!!!!!)=+....=!!!>+.........",
"..........+-!!!>+....+=,!!!!!!!!!!!!!!!!,=+....+>!!!-+..........",
"............*)!!'=+.....+*>')!!!!!!)'>*+.....+='!!)*............",
".............$'!!!'&.........+#%%#+.........&'!!!'$.............",
"..............+;)!!!,*+..................+*,!!!);+..............",
"................@>!!!!!,=#............#=,!!!!!>@................",
"..................$,!!!!!!',>;-**-;>,'!!!!!!,$..................",
"....................@=,)!!!!!!!!!!!!!!!!),=@....................",
".......................+*>,'!!!!!!!!',>*+.......................",
"............................+@$&&$@+............................"};
