/* XPM */
static char * reboot_out_xpm[] = {
"64 64 17 1",
" 	c None",
".	c #000100",
"+	c #181917",
"@	c #272926",
"#	c #363735",
"$	c #474846",
"%	c #575856",
"&	c #646663",
"*	c #737572",
"=	c #888A87",
"-	c #989A97",
";	c #A7A9A6",
">	c #B6B8B5",
",	c #C5C7C4",
"'	c #D8DAD7",
")	c #E7E9E6",
"!	c #FDFFFC",
".............................+#$$#+.............................",
"........................%-,)!!!!!!!!),-%........................",
"....................+&>!!!!!!!!!!!!!!!!!!>&+....................",
"..................@>!!!!!!),;-*&&*-;,)!!!!!!>@..................",
"................+;!!!!!,*@............@*,!!!!!;+................",
"...............=!!!!,&+..................+&,!!!!=...............",
".............#)!!!'$.........+@$$@+.........$'!!!)#.............",
"............%!!!)&......+%;'!!!!!!!!';%+......&)!!!%............",
"...........=!!!-......&>!!!!!!!!!!!!!!!!>&......-!!!=...........",
"..........>!!!&.....*)!!!!!!!!!!!!!!!!!!!!)*.....&!!!>..........",
".........>!!)$....&)!!!!!!,#@+@#$&-,!!!!!!!!)&....$)!!>.........",
"........=!!'@....>!!!!!!!!>..........#-)!!!!!!>....@'!!=........",
".......&!!)@...@'!!!!!!!!!>.............%,!!!!!'@...@)!!&.......",
"......#!!!$...$)!!!!!!!!!!>...............%'!!!!)$...$!!!#......",
".....+)!!*...$!!!!!!!!!!!!>.................=!!!!!$...*!!)+.....",
".....=!!-...@)!!!!!!!!!!!!)-,'>=*$@..........%)!!!)@...-!!=.....",
"....+!!)....'!!!!!!!!!!!!!!!!!!!!!!!>$........@)!!!'....)!!+....",
"....;!!&...>!!!!!!!!!!!!!!!!!!!!!!!!!!'&.......#!!!!>...&!!;....",
"...#!!'...%!!!!!!!!!!!!!!!!!!!!!!!!!!!!!)*......&!!!!%...'!!#...",
"...>!!$...'!!!!!!!!!!!!!!!!!!!!!!!!!!!!!!!=......>!!!'...$!!>...",
"..+!!,...*!!!!!!!!!!!!!!!!!!!!!!!!!!!!!!!!!=.....$!!!!*...,!!+..",
"..&!!&...)!!!!!!!!!!!!!!!!'%&!!!!!!!!!!!!!!!=.....,!!!)...&!!&..",
"..>!!+..*!!!!!!!!!!!!!!!!'+..=!!!!!!!!!!!!!!!@....*!!!!*..+!!>..",
".+!!,...,!!!!!!!!!!!!!!!)@...&!!!!!!!!!!!!!!!-....$!!!!,...,!!+.",
".%!!*..+!!!!!!!!!!!!!!!!#....&!!!!!!!!!!!!!!!'....@!!!!!+..*!!%.",
".;!!@..&!!!!!!!!!!!!!!!$.....&!!!!!!!!!!!!!!!!.....!!!!!&..@!!;.",
".,!)...>!!!!!!!!!!!!!!&......&!!!!!!!!!!!!!!!'....@!!!!!>...)!,.",
".)!,...'!!!!!!!!!!!!!*.......&!!!!!!!!!!!!!!!-....$!!!!!'...,!).",
".!!;...!!!!!!!!!!!!!=........&!!!!!!!!!!!!!!!@....*!!!!!!...;!!.",
"+!!-..+!!!!!!!!!!!!;.........&!!!!!!!!!!!!!!*.....'!!!!!!+..-!!+",
"#!!*..@!!!!!!!!!!!>..........&!!!!!!!!!!!!!*.....$!!!!!!!@..*!!#",
"$!!&..$!!!!!!!!!!,...........&!!!!!!!!!!!!*......,!!!!!!!$..&!!$",
"$!!&..$!!!!!!!!!'+...........&!!!!!!!!!!)&......*!!!!!!!!$..&!!$",
"#!!*..@!!!!!!!!)@............&!!!!!!!!,%.......$!!!!!!!!!@..*!!#",
"+!!-..+!!!!!!!)@.............&!!!!!);#........#)!!!!!!!!!+..-!!+",
".!!;...!!!!!!!$..............%;=&#+..........&!!!!!!!!!!!...;!!.",
".)!,...'!!!!!&..............................=!!!!!!!!!!!'...,!).",
".,!)...;!!!!!+............................&)!!!!!!!!!!!!;...)!,.",
".-!!@..&!!!!!%..........................&'!!!!!!!!!!!!!!&..@!!-.",
".%!!*..+!!!!!!#.....................+%;!!!!!!!!!!!!!!!!!+..*!!%.",
"..!!,...,!!!!!)@.............+$%&*;)!!!!!!!!!!!!!!!!!!!,...,!!..",
"..>!!+..*!!!!!!'+............&!!!!!!!!!!!!!!!!!!!!!!!!!*..+!!>..",
"..&!!&...)!!!!!!'............&!!!!!!!!!!!!!!!!!!!!!!!!)...&!!&..",
"..+!!,...&!!!!!!!,...........&!!!!!!!!!!!!!!!!!!!!!!!!&...,!!+..",
"...>!!%...'!!!!!!!;..........&!!!!!!!!!!!!!!!!!!!!!!!'...%!!>...",
"...@!!'...%!!!!!!!!-.........&!!!!!!!!!!!!!!!!!!!!!!!%...'!!@...",
"....;!!&...>!!!!!!!!=........&!!!!!!!!!!!!!!!!!!!!!!>...&!!;....",
"....+!!)....'!!!!!!!!&.......&!!!!!!!!!!!!!!!!!!!!!'....)!!+....",
".....=!!-...@)!!!!!!!!%......&!!!!!!!!!!!!!!!!!!!!)@...-!!=.....",
"......)!!*...$!!!!!!!!!#.....&!!!!!!!!!!!!!!!!!!!!$...*!!)......",
"......#!!!$...#)!!!!!!!)@....&!!!!!!!!!!!!!!!!!!)#...$!!!#......",
".......%!!)@...@'!!!!!!!)+...&!!!!!!!!!!!!!!!!!'@...@)!!%.......",
"........=!!'@....>!!!!!!!'+..=!!!!!!!!!!!!!!!!>....@'!!=........",
".........>!!)$....%'!!!!!!'$%)!!!!!!!!!!!!!!'%....$)!!>.........",
"..........;!!!*.....*)!!!!!!!!!!!!!!!!!!!!)*.....*!!!;..........",
"...........=!!!-......&>!!!!!!!!!!!!!!!!>&......-!!!=...........",
"............%!!!)&......+%;'!!!!!!!!';%+......&)!!!%............",
".............#)!!!'$.........+@$$@+.........$'!!!)#.............",
"...............=!!!!,&+..................+&,!!!!=...............",
"................+;!!!!!,*@............@*,!!!!!;+................",
"..................@>!!!!!!),;-*&&*-;,)!!!!!!>@..................",
"....................+&>!!!!!!!!!!!!!!!!!!>&+....................",
"........................%-,)!!!!!!!!),-%........................",
".............................+#$$#+............................."};
