/* XPM */
static char * shutdown_in_xpm[] = {
"64 64 18 1",
" 	c None",
".	c #006400",
"+	c #1A0401",
"@	c #291213",
"#	c #E70309",
"$	c #FF0000",
"%	c #682625",
"&	c #83292A",
"*	c #920000",
"=	c #720000",
"-	c #A02B2B",
";	c #000100",
">	c #AF0000",
",	c #BC2624",
"'	c #2C0706",
")	c #4D0000",
"!	c #CD0506",
"~	c #4D1F1E",
"..............................+.................................",
"............................@#$$$$#@............................",
"...........................%$$$$$$$$%...........................",
"..........................&$$$#*=#$$$-..........................",
"..........................#$$=;;;;=$$#..........................",
".........................@$$>;;;;;;>$$@.........................",
".........................,$$';;;;;;)$$-.........................",
".........................#$$;;;;;;;;$$!.........................",
".........................#$$;;;;;;;;$$#.........................",
".......................+.#$$;;;;;;;;$$#.+.......................",
".....................%#$$$$$;;;;;;;;$$$$$#&.....................",
"...................%#$$$$$$$;;;;;;;;$$$$$$$$-+..................",
".................%#$$$$!$$$$;;;;;;;;$$$$>$$$$$%.................",
"................!$$$$!);$$$$;;;;;;;;$$$$;'*$$$$!+...............",
"..............+#$$$!);;;$$$$;;;;;;;;$$$$;;;+*$$$$%..............",
".............'#$$#);;;;;$$$$;;;;;;;;$$$$;;;;;)#$$$%.............",
"............~$$$#';;;;;;$$$$;;;;;;;;$$$$;;;;;;+>$$$%............",
"...........%$$$!+;;;;;;;$$$$;;;;;;;;$$$$;;;;;;;;*$$$%...........",
"..........'$$$>;;;;;;;;;$$$$;;;;;;;;$$$$;;;;;;;;;*$$$~..........",
"..........#$$*;;;;;;;;;;$$$$;;;;;;;;$$$$;;;;;;;;;;*$$#..........",
".........-$$!;;;;;;;;;;;$$$$;;;;;;;;$$$$;;;;;;;;;;;>$$,.........",
"........'$$$';;;;;;;;;'!$$$$;;;;;;;;$$$$!+;;;;;;;;;+#$$%........",
"........#$$=;;;;;;;;;=$$$$$$;;;;;;;;$$$$$#);;;;;;;;;)$$$........",
".......-$$!;;;;;;;;;>$$$$$$$;;;;;;;;$$$$$$$*;;;;;;;;;>$$&.......",
".......$$$';;;;;;;;>$$$$$$$$;;;;;;;;$$$$$$$$*;;;;;;;;'$$#.......",
"......~$$>;;;;;;;;=$$$$$$$$$;;;;;;;;$$$$$$$$$);;;;;;;;>$$&......",
"......,$$);;;;;;;'$$$$$$$$$$;;;;;;;;$$$$$$$$$#+;;;;;;;'$$#......",
"......$$#;;;;;;;;!$$$$$$$$$$;;;;;;;;$$$$$$$$$$>;;;;;;;;!$$+.....",
".....%$$*;;;;;;;=$$$$$$$$$$$;;;;;;;;$$$$$$$$$$$);;;;;;;=$$&.....",
".....!$$);;;;;;;>$$$$$$$$$$$;;;;;;;;$$$$$$$$$$$>;;;;;;;'$$!.....",
".....$$#;;;;;;;+$$$$$$$$$$$$;;;;;;;;$$$$$$$$$$$$;;;;;;;;#$#.....",
".....$$>;;;;;;;)$$$$$$$$$$$$;;;;;;;;$$$$$$$$$$$$);;;;;;;>$$.....",
"....@$$*;;;;;;;>$$$$$$$$$$$$;;;;;;;;$$$$$$$$$$$$*;;;;;;;*$$'....",
"....%$$=;;;;;;;#$$$$$$$$$$$$;;;;;;;;$$$$$$$$$$$$#;;;;;;;=$$%....",
"....&$$);;;;;;;#$$$$$$$$$$$$=;;;;;;)$$$$$$$$$$$$#;;;;;;;=$$&....",
"....-$$);;;;;;;#$$$$$$$$$$$$!;;;;;;!$$$$$$$$$$$$#;;;;;;;)$$-....",
"....&$$);;;;;;;#$$$$$$$$$$$$$*+;;;*$$$$$$$$$$$$$#;;;;;;;)$$&....",
"....%$$=;;;;;;;#$$$$$$$$$$$$$$$>!$$$$$$$$$$$$$$$#;;;;;;;=$$%....",
"....~$$=;;;;;;;#$$$$$$$$$$$$$$$$$$$$$$$$$$$$$$$$#;;;;;;;=$$~....",
"....'$$*;;;;;;;>$$$$$$$$$$$$$$$$$$$$$$$$$$$$$$$$>;;;;;;;*$$@....",
".....$$!;;;;;;;=$$$$$$$$$$$$$$$$$$$$$$$$$$$$$$$$=;;;;;;;>$$.....",
".....#$$;;;;;;;'$$$$$$$$$$$$$$$$$$$$$$$$$$$$$$$$';;;;;;;$$#.....",
".....,$$);;;;;;;>$$$$$$$$$$$$$$$$$$$$$$$$$$$$$$>;;;;;;;)$$,.....",
".....%$$*;;;;;;;)$$$$$$$$$$$$$$$$$$$$$$$$$$$$$$);;;;;;;*$$%.....",
"......$$#;;;;;;;;!$$$$$$$$$$$$$$$$$$$$$$$$$$$$!;;;;;;;;!$$......",
"......!$$);;;;;;;'$$$$$$$$$$$$$$$$$$$$$$$$$$$$';;;;;;;)$$!......",
"......~$$!;;;;;;;;=$$$$$$$$$$$$$$$$$$$$$$$$$$=;;;;;;;;!$$%......",
".......#$$';;;;;;;;*$$$$$$$$$$$$$$$$$$$$$$$$*;;;;;;;;)$$#.......",
".......%$$!;;;;;;;;;*$$$$$$$$$$$$$$$$$$$$$$*;;;;;;;;;!$$%.......",
"........#$$=;;;;;;;;;)$$$$$$$$$$$$$$$$$$$$=;;;;;;;;;=$$#........",
"........~$$$';;;;;;;;;'>$$$$$$$$$$$$$$$$>';;;;;;;;;'$$$~........",
".........-$$!;;;;;;;;;;;)>$$$$$$$$$$$$>);;;;;;;;;;;!$$-.........",
"..........#$$>;;;;;;;;;;;;+)>!#$$#!>)+;;;;;;;;;;;;>$$#..........",
"..........@$$$>;;;;;;;;;;;;;;;;;;;;;;;;;;;;;;;;;;>$$$@..........",
"...........~$$$>;;;;;;;;;;;;;;;;;;;;;;;;;;;;;;;;>$$$~...........",
"............~$$$#';;;;;;;;;;;;;;;;;;;;;;;;;;;;'!$$$~............",
".............~$$$$=;;;;;;;;;;;;;;;;;;;;;;;;;;=$$$$~.............",
"..............+#$$$!);;;;;;;;;;;;;;;;;;;;;;)!$$$#@..............",
"................-$$$$!);;;;;;;;;;;;;;;;;;)!$$$$-................",
".................~#$$$$#*);;;;;;;;;;;;)*#$$$$#~.................",
"...................%#$$$$$$!>*====*>!$$$$$$#%...................",
".....................~!$$$$$$$$$$$$$$$$$$!~.....................",
"........................~,#$$$$$$$$$$#,~........................",
".............................'%&&%~+............................"};
