/* XPM */
static char * shutdown_out_xpm[] = {
"64 64 17 1",
" 	c None",
".	c #000100",
"+	c #181917",
"@	c #282927",
"#	c #363835",
"$	c #474846",
"%	c #555754",
"&	c #656764",
"*	c #767875",
"=	c #878986",
"-	c #959794",
";	c #A6A8A5",
">	c #B7B9B5",
",	c #C7C9C6",
"'	c #DBDDDA",
")	c #E8EAE7",
"!	c #FDFFFC",
"..............................+.................................",
"............................+'!!!!)@............................",
"...........................*!!!!!!!!&...........................",
"..........................=!!!'-*'!!!-..........................",
"..........................)!!&....&!!)..........................",
".........................@!!>......>!!@.........................",
".........................>!!@......%!!;.........................",
".........................'!!........!!'.........................",
".........................'!!........!!'.........................",
".......................+.'!!........!!'.+.......................",
".....................%)!!!!!........!!!!!)=.....................",
"...................%)!!!!!!!........!!!!!!!!;+..................",
".................%)!!!!,!!!!........!!!!>!!!!!*.................",
"................'!!!!,$.!!!!........!!!!.@-!!!!,+...............",
"..............+)!!!,$...!!!!........!!!!...+-!!!!%..............",
".............#!!!)$.....!!!!........!!!!.....$)!!!&.............",
"............%!!!'@......!!!!........!!!!......+;!!!&............",
"...........&!!!,+.......!!!!........!!!!........-!!!&...........",
"..........#!!!;.........!!!!........!!!!.........-!!!$..........",
"..........)!!-..........!!!!........!!!!..........=!!!..........",
".........;!!,...........!!!!........!!!!...........>!!,.........",
"........#!!!@.........@'!!!!........!!!!,+.........+)!!*........",
"........)!!*.........&!!!!!!........!!!!!)$.........%!!!........",
".......-!!,.........;!!!!!!!........!!!!!!!=.........;!!=.......",
".......!!!@........;!!!!!!!!........!!!!!!!!-........@!!!.......",
"......%!!;........&!!!!!!!!!........!!!!!!!!!$........;!!*......",
"......,!!$.......@)!!!!!!!!!........!!!!!!!!!)+.......#!!)......",
"......!!)........,!!!!!!!!!!........!!!!!!!!!!>........,!!+.....",
".....&!!-.......&!!!!!!!!!!!........!!!!!!!!!!!%.......*!!*.....",
".....,!!$.......>!!!!!!!!!!!........!!!!!!!!!!!>.......#!!,.....",
".....!!).......+!!!!!!!!!!!!........!!!!!!!!!!!!........)!!.....",
".....!!;.......&!!!!!!!!!!!!........!!!!!!!!!!!!%.......;!!.....",
"....@!!-.......>!!!!!!!!!!!!........!!!!!!!!!!!!-.......-!!#....",
"....%!!*.......)!!!!!!!!!!!!........!!!!!!!!!!!!'.......*!!%....",
"....=!!%.......)!!!!!!!!!!!!&......$!!!!!!!!!!!!).......&!!*....",
"....-!!$.......)!!!!!!!!!!!!,......'!!!!!!!!!!!!'.......$!!-....",
"....=!!%.......)!!!!!!!!!!!!!-+...=!!!!!!!!!!!!!'.......%!!=....",
"....&!!&.......)!!!!!!!!!!!!!!!;,!!!!!!!!!!!!!!!'.......&!!*....",
"....%!!*.......'!!!!!!!!!!!!!!!!!!!!!!!!!!!!!!!!'.......*!!%....",
"....#!!=.......;!!!!!!!!!!!!!!!!!!!!!!!!!!!!!!!!;.......-!!@....",
".....!!,.......&!!!!!!!!!!!!!!!!!!!!!!!!!!!!!!!!&.......>!!.....",
".....)!!.......@!!!!!!!!!!!!!!!!!!!!!!!!!!!!!!!!@.......!!).....",
".....>!!$.......>!!!!!!!!!!!!!!!!!!!!!!!!!!!!!!>.......$!!>.....",
".....&!!=.......$!!!!!!!!!!!!!!!!!!!!!!!!!!!!!!$.......=!!&.....",
"......!!'........,!!!!!!!!!!!!!!!!!!!!!!!!!!!!,........'!!......",
"......'!!%.......@!!!!!!!!!!!!!!!!!!!!!!!!!!!!@.......$!!'......",
"......%!!,........&!!!!!!!!!!!!!!!!!!!!!!!!!!&........,!!%......",
".......)!!#........=!!!!!!!!!!!!!!!!!!!!!!!!=........#!!).......",
".......*!!,.........=!!!!!!!!!!!!!!!!!!!!!!=.........>!!&.......",
"........)!!*.........%)!!!!!!!!!!!!!!!!!!)&.........*!!)........",
"........#!!!@.........@>!!!!!!!!!!!!!!!!>@.........@!!!$........",
".........;!!,...........#>!!!!!!!!!!!!>#...........,!!;.........",
"..........)!!>............+%;,)!!),;%+............>!!)..........",
"..........@!!!>..................................>!!!@..........",
"...........#!!!>................................>!!!$...........",
"............#!!!'#............................#'!!!$............",
".............$!!!!*..........................*!!!!$.............",
"..............+)!!!,$......................$,!!!)@..............",
"................;!!!!,$..................%,!!!!-................",
".................$)!!!!'-$............$='!!!!)#.................",
"...................%)!!!!!!,;-*&&*=;,!!!!!!)&...................",
".....................%'!!!!!!!!!!!!!!!!!!'$.....................",
"........................%>)!!!!!!!!!!)>%........................",
".............................#&=*%#+............................"};
