/* XPM */
static char * shutdown_in_xpm[] = {
"64 64 17 1",
" 	c None",
".	c #000100",
"+	c #1A0401",
"@	c #2C0706",
"#	c #4D0000",
"$	c #291213",
"%	c #720000",
"&	c #920000",
"*	c #AF0000",
"=	c #4D1F1E",
"-	c #CD0506",
";	c #E70309",
">	c #682625",
",	c #FF0000",
"'	c #83292A",
")	c #A02B2B",
"!	c #BC2624",
"..............................+.................................",
"............................$;,,,,;$............................",
"...........................>,,,,,,,,>...........................",
"..........................',,,;&%;,,,)..........................",
"..........................;,,%....%,,;..........................",
".........................$,,*......*,,$.........................",
".........................!,,@......#,,).........................",
".........................;,,........,,-.........................",
".........................;,,........,,;.........................",
".......................+.;,,........,,;.+.......................",
".....................>;,,,,,........,,,,,;'.....................",
"...................>;,,,,,,,........,,,,,,,,)+..................",
".................>;,,,,-,,,,........,,,,*,,,,,>.................",
"................-,,,,-#.,,,,........,,,,.@&,,,,-+...............",
"..............+;,,,-#...,,,,........,,,,...+&,,,,>..............",
".............@;,,;#.....,,,,........,,,,.....#;,,,>.............",
"............=,,,;@......,,,,........,,,,......+*,,,>............",
"...........>,,,-+.......,,,,........,,,,........&,,,>...........",
"..........@,,,*.........,,,,........,,,,.........&,,,=..........",
"..........;,,&..........,,,,........,,,,..........&,,;..........",
".........),,-...........,,,,........,,,,...........*,,!.........",
"........@,,,@.........@-,,,,........,,,,-+.........+;,,>........",
"........;,,%.........%,,,,,,........,,,,,;#.........#,,,........",
".......),,-.........*,,,,,,,........,,,,,,,&.........*,,'.......",
".......,,,@........*,,,,,,,,........,,,,,,,,&........@,,;.......",
"......=,,*........%,,,,,,,,,........,,,,,,,,,#........*,,'......",
"......!,,#.......@,,,,,,,,,,........,,,,,,,,,;+.......@,,;......",
"......,,;........-,,,,,,,,,,........,,,,,,,,,,*........-,,+.....",
".....>,,&.......%,,,,,,,,,,,........,,,,,,,,,,,#.......%,,'.....",
".....-,,#.......*,,,,,,,,,,,........,,,,,,,,,,,*.......@,,-.....",
".....,,;.......+,,,,,,,,,,,,........,,,,,,,,,,,,........;,;.....",
".....,,*.......#,,,,,,,,,,,,........,,,,,,,,,,,,#.......*,,.....",
"....$,,&.......*,,,,,,,,,,,,........,,,,,,,,,,,,&.......&,,@....",
"....>,,%.......;,,,,,,,,,,,,........,,,,,,,,,,,,;.......%,,>....",
"....',,#.......;,,,,,,,,,,,,%......#,,,,,,,,,,,,;.......%,,'....",
"....),,#.......;,,,,,,,,,,,,-......-,,,,,,,,,,,,;.......#,,)....",
"....',,#.......;,,,,,,,,,,,,,&+...&,,,,,,,,,,,,,;.......#,,'....",
"....>,,%.......;,,,,,,,,,,,,,,,*-,,,,,,,,,,,,,,,;.......%,,>....",
"....=,,%.......;,,,,,,,,,,,,,,,,,,,,,,,,,,,,,,,,;.......%,,=....",
"....@,,&.......*,,,,,,,,,,,,,,,,,,,,,,,,,,,,,,,,*.......&,,$....",
".....,,-.......%,,,,,,,,,,,,,,,,,,,,,,,,,,,,,,,,%.......*,,.....",
".....;,,.......@,,,,,,,,,,,,,,,,,,,,,,,,,,,,,,,,@.......,,;.....",
".....!,,#.......*,,,,,,,,,,,,,,,,,,,,,,,,,,,,,,*.......#,,!.....",
".....>,,&.......#,,,,,,,,,,,,,,,,,,,,,,,,,,,,,,#.......&,,>.....",
"......,,;........-,,,,,,,,,,,,,,,,,,,,,,,,,,,,-........-,,......",
"......-,,#.......@,,,,,,,,,,,,,,,,,,,,,,,,,,,,@.......#,,-......",
"......=,,-........%,,,,,,,,,,,,,,,,,,,,,,,,,,%........-,,>......",
".......;,,@........&,,,,,,,,,,,,,,,,,,,,,,,,&........#,,;.......",
".......>,,-.........&,,,,,,,,,,,,,,,,,,,,,,&.........-,,>.......",
"........;,,%.........#,,,,,,,,,,,,,,,,,,,,%.........%,,;........",
"........=,,,@.........@*,,,,,,,,,,,,,,,,*@.........@,,,=........",
".........),,-...........#*,,,,,,,,,,,,*#...........-,,).........",
"..........;,,*............+#*-;,,;-*#+............*,,;..........",
"..........$,,,*..................................*,,,$..........",
"...........=,,,*................................*,,,=...........",
"............=,,,;@............................@-,,,=............",
".............=,,,,%..........................%,,,,=.............",
"..............+;,,,-#......................#-,,,;$..............",
"................),,,,-#..................#-,,,,)................",
".................=;,,,,;&#............#&;,,,,;=.................",
"...................>;,,,,,,-*&%%%%&*-,,,,,,;>...................",
".....................=-,,,,,,,,,,,,,,,,,,-=.....................",
"........................=!;,,,,,,,,,,;!=........................",
".............................@>''>=+............................"};
